<?xml version="1.0" encoding="utf-8"?>
<!-- Generator: Adobe Illustrator 19.1.0, SVG Export Plug-In . SVG Version: 6.00 Build 0)  -->
<svg version="1.1" xmlns="http://www.w3.org/2000/svg" xmlns:xlink="http://www.w3.org/1999/xlink" x="0px" y="0px"
	 viewBox="0 0 43.2 28.7" style="enable-background:new 0 0 43.2 28.7;" xml:space="preserve">
<style type="text/css">
	.st0{display:none;}
	.st1{display:inline;fill:#1E99D0;}
	.st2{fill:#FFFFFF;}
	.st3{fill:#1E99D0;}
	.st4{fill:none;stroke:#FFFFFF;stroke-width:0.5;stroke-linecap:round;stroke-miterlimit:10;}
	.st5{fill:none;}
	.st6{fill:#FFFFFF;stroke:#1E99D0;stroke-miterlimit:10;}
</style>
<g id="Layer_2" class="st0">
	<rect x="-26" y="-14.8" class="st1" width="251.7" height="58.7"/>
</g>
<g id="Layer_1">
	<g>
		<path class="st2" d="M32.3,20.4h-22c-0.9,0-1.7-0.8-1.7-1.7V8.9c0-0.9,0.8-1.7,1.7-1.7h22c0.9,0,1.7,0.8,1.7,1.7v9.9
			C34,19.6,33.3,20.4,32.3,20.4z"/>
		<path class="st3" d="M30.7,19.3H12c-0.7,0-1.2-0.6-1.2-1.2V9.5c0-0.7,0.6-1.2,1.2-1.2h18.7c0.7,0,1.2,0.6,1.2,1.2v8.6
			C32,18.8,31.4,19.3,30.7,19.3z"/>
		<g>
			<path class="st2" d="M18.1,10.5h1.3c0.4,0,0.8,0.2,1.1,0.5c0.3,0.3,0.5,0.7,0.5,1.1c0,0.4-0.2,0.8-0.5,1.1
				c-0.1,0.1-0.3,0.3-0.5,0.3l1.2,1.9c0,0,0,0.1,0,0.1c0,0.1,0,0.1-0.1,0.2c-0.1,0.1-0.1,0.1-0.2,0.1c-0.1,0-0.2,0-0.2-0.1l-1.3-2
				c0,0-0.1,0-0.1,0h-1.1v1.9c0,0.1,0,0.1-0.1,0.2c-0.1,0.1-0.1,0.1-0.2,0.1c-0.1,0-0.1,0-0.2-0.1c-0.1-0.1-0.1-0.1-0.1-0.2v-4.8
				c0-0.1,0-0.1,0.1-0.2C18,10.5,18.1,10.5,18.1,10.5z M18.4,11v2.1h1.1c0.3,0,0.5-0.1,0.8-0.3s0.3-0.5,0.3-0.8
				c0-0.3-0.1-0.5-0.3-0.8C20,11.1,19.8,11,19.5,11H18.4z"/>
			<path class="st2" d="M22.4,17.2c0,0.1,0,0.1-0.1,0.2s-0.1,0.1-0.2,0.1s-0.1,0-0.2-0.1s-0.1-0.1-0.1-0.2V14c0-0.5,0.2-1,0.5-1.3
				c0.4-0.4,0.8-0.5,1.3-0.5s1,0.2,1.3,0.5c0.4,0.4,0.5,0.8,0.5,1.3s-0.2,1-0.5,1.3c-0.4,0.4-0.8,0.5-1.3,0.5s-1-0.2-1.3-0.5
				c0,0,0,0,0,0V17.2z M22.4,14c0,0.4,0.1,0.7,0.4,0.9c0.3,0.3,0.6,0.4,0.9,0.4c0.4,0,0.7-0.1,0.9-0.4c0.3-0.3,0.4-0.6,0.4-0.9
				S25,13.3,24.7,13c-0.3-0.3-0.6-0.4-0.9-0.4c-0.4,0-0.7,0.1-0.9,0.4C22.5,13.3,22.4,13.6,22.4,14z"/>
		</g>
		<line class="st4" x1="10.7" y1="21.3" x2="32" y2="21.3"/>
		<line class="st4" x1="12.5" y1="22.1" x2="30.2" y2="22.1"/>
	</g>
</g>
</svg>
